<svg width="370" height="294" xmlns="http://www.w3.org/2000/svg">
 <!-- Created with Method Draw - http://github.com/duopixel/Method-Draw/ -->
 <g>
  <title>background</title>
  <rect fill="none" id="canvas_background" height="296" width="372" y="-1" x="-1"/>
  <g display="none" overflow="visible" y="0" x="0" height="100%" width="100%" id="canvasGrid">
   <rect fill="url(#gridpattern)" stroke-width="0" y="0" x="0" height="100%" width="100%"/>
  </g>
 </g>
 <g>
  <title>Layer 1</title>
  <line fill-opacity="0" stroke-linecap="undefined" stroke-linejoin="undefined" id="svg_5" y2="264.167192" x2="55.5" y1="23.487268" x1="55.5" stroke-width="1.5" stroke="#4F80FF" fill="none"/>
  <ellipse ry="4.5" rx="4" id="svg_12" cy="79" cx="54.5" stroke-opacity="null" stroke-width="1.5" stroke="#000" fill="#29c6e5"/>
  <ellipse ry="4.5" rx="4" id="svg_13" cy="143" cx="55.5" stroke-opacity="null" stroke-width="1.5" stroke="#000" fill="#29c6e5"/>
  <ellipse ry="4.5" rx="4" id="svg_14" cy="210.667197" cx="55.5" stroke-opacity="null" stroke-width="1.5" stroke="#000" fill="#29c6e5"/>
  <text style="cursor: move;" transform="matrix(0.631218, 0, 0, 0.805511, 71.9492, 10.4489)" xml:space="preserve" text-anchor="start" font-family="Open Sans, Helvetica, Arial, sans-serif" font-size="23" id="svg_21" y="90.364687" x="63.034368" stroke-opacity="null" stroke-width="0" stroke="#000" fill="#ffffff">Bachelor of Science (Incomplete)</text>
  <text style="cursor: move;" transform="matrix(0.631218, 0, 0, 0.805511, 71.9492, 10.4489)" xml:space="preserve" text-anchor="start" font-family="Open Sans, Helvetica, Arial, sans-serif" font-size="23" id="svg_22" y="170.542555" x="63.034368" stroke-opacity="null" stroke-width="0" stroke="#000" fill="#ffffff">Diploma of Software Development</text>
  <text style="cursor: move;" transform="matrix(0.631218, 0, 0, 0.805511, 71.9492, 10.4489)" xml:space="preserve" text-anchor="start" font-family="Open Sans, Helvetica, Arial, sans-serif" font-size="23" id="svg_23" y="255.337393" x="63.034368" fill-opacity="null" stroke-opacity="null" stroke-width="0" stroke="#000" fill="#ffffff">Diploma of IT (Coder Academy)</text>
  <ellipse ry="8.5" rx="8.5" id="svg_25" cy="12.980921" cx="55.667197" stroke-width="1.5" stroke="#000" fill="#29c6e5"/>
  <path transform="rotate(90, 55.25, 262.448)" id="svg_28" d="m57.271973,262.44751l-20.021973,-24.5l36,24.5l-36,24.5l20.021973,-24.5z" stroke-opacity="null" stroke-width="1.5" stroke="#000" fill="#29c6e5"/>
  <text transform="matrix(0.831263, 0, 0, 0.897437, 1.7869, 15.6042)" xml:space="preserve" text-anchor="start" font-family="Noto Serif, Helvetica, Arial, sans-serif" font-size="22" id="svg_29" y="78.758396" x="4.632738" stroke-opacity="null" stroke-width="0" stroke="#000" fill="#ffffff">2013</text>
  <text style="cursor: move;" transform="matrix(0.831263, 0, 0, 0.897437, 1.7869, 15.6042)" xml:space="preserve" text-anchor="start" font-family="Noto Serif, Helvetica, Arial, sans-serif" font-size="22" id="svg_30" y="149.071422" x="4.632738" fill-opacity="null" stroke-opacity="null" stroke-width="0" stroke="#000" fill="#ffffff">2018</text>
  <text style="cursor: move;" transform="matrix(0.831263, 0, 0, 0.897437, 1.7869, 15.6042)" xml:space="preserve" text-anchor="start" font-family="Noto Serif, Helvetica, Arial, sans-serif" font-size="22" id="svg_31" y="226.277078" x="4.632738" fill-opacity="null" stroke-opacity="null" stroke-width="0" stroke="#000" fill="#ffffff">2019</text>
  <line fill-opacity="0" stroke-linecap="undefined" stroke-linejoin="undefined" id="svg_35" y2="79.567032" x2="109.316911" y1="79.567032" x1="59.297829" stroke-width="1.5" stroke="#4F80FF" fill="none"/>
  <line fill-opacity="0" stroke-linecap="undefined" stroke-linejoin="undefined" id="svg_36" y2="142.950712" x2="109.316911" y1="142.950712" x1="59.297829" stroke-width="1.5" stroke="#4F80FF" fill="none"/>
  <line fill-opacity="0" stroke-linecap="undefined" stroke-linejoin="undefined" id="svg_37" y2="210.337572" x2="109.316911" y1="210.337572" x1="59.297829" stroke-width="1.5" stroke="#4F80FF" fill="none"/>
 </g>
</svg>
